<?xml version="1.0" encoding="UTF-8" standalone="no"?>
<svg
   xmlns:dc="http://purl.org/dc/elements/1.1/"
   xmlns:cc="http://creativecommons.org/ns#"
   xmlns:rdf="http://www.w3.org/1999/02/22-rdf-syntax-ns#"
   xmlns:svg="http://www.w3.org/2000/svg"
   xmlns="http://www.w3.org/2000/svg"
   xmlns:sodipodi="http://sodipodi.sourceforge.net/DTD/sodipodi-0.dtd"
   xmlns:inkscape="http://www.inkscape.org/namespaces/inkscape"
   inkscape:version="1.0 (4035a4fb49, 2020-05-01)"
   sodipodi:docname="duck_emoji_headphones.svg"
   id="svg35"
   version="1.1"
   style="enable-background:new 0 0 128 128;"
   height="128"
   width="128">
  <metadata
     id="metadata41">
    <rdf:RDF>
      <cc:Work
         rdf:about="">
        <dc:format>image/svg+xml</dc:format>
        <dc:type
           rdf:resource="http://purl.org/dc/dcmitype/StillImage" />
      </cc:Work>
    </rdf:RDF>
  </metadata>
  <defs
     id="defs39" />
  <sodipodi:namedview
     inkscape:current-layer="svg35"
     inkscape:window-maximized="1"
     inkscape:window-y="-11"
     inkscape:window-x="-11"
     inkscape:cy="107.13561"
     inkscape:cx="-59.165996"
     inkscape:zoom="2.2594271"
     showgrid="false"
     id="namedview37"
     inkscape:window-height="986"
     inkscape:window-width="1920"
     inkscape:pageshadow="2"
     inkscape:pageopacity="0"
     guidetolerance="10"
     gridtolerance="10"
     objecttolerance="10"
     borderopacity="1"
     bordercolor="#666666"
     pagecolor="#ffffff" />
  <linearGradient
     gradientTransform="translate(0,2)"
     y2="45.1025"
     y1="11.504"
     x2="51.0205"
     x1="47.4891"
     gradientUnits="userSpaceOnUse"
     id="SVGID_1_">
    <stop
       id="stop2"
       style="stop-color:#01AB46"
       offset="0.1705" />
    <stop
       id="stop4"
       style="stop-color:#089E42"
       offset="0.3448" />
    <stop
       id="stop6"
       style="stop-color:#1A7A37"
       offset="0.6711" />
    <stop
       id="stop8"
       style="stop-color:#2F502A"
       offset="1" />
  </linearGradient>
  <ellipse
     style="fill:#1a1a1a;stroke-width:13.2057;stroke-linecap:round;paint-order:stroke fill markers"
     id="path866-0"
     cx="43.595123"
     cy="17.048061"
     rx="12.060579"
     ry="13.941588" />
  <path
     sodipodi:nodetypes="csc"
     id="path883"
     d="M 43.808072,11.966621 C 51.843472,4.6428022 63.864922,-0.15758041 72.355131,6.2129503 84.233613,15.125832 78.094389,16.826459 70.363475,24.359143"
     style="fill:none;stroke:#000000;stroke-width:4.4;stroke-linecap:butt;stroke-linejoin:miter;stroke-miterlimit:4;stroke-dasharray:none;stroke-opacity:1" />
  <path
     id="path11"
     style="fill:url(#SVGID_1_)"
     d="m 35.84,50.65 c 0,0 5.84,-8.38 5.42,-11.61 -0.42,-3.24 -1.55,-3.94 -4.79,-5.07 -3.24,-1.13 -5.14,-2.89 -5.14,-2.89 0,0 -2.35,-11.03 -2.11,-12.39 0.28,-1.62 6.12,-12.53 19.99,-12.53 13.37,0 18.86,11.22 18.16,19.85 -0.63,7.81 -3.52,10 -5.56,16.47 -2.04,6.48 -3.03,10.35 -3.03,10.35 L 46.74,55.29 36.67,53.11 Z" />
  <path
     id="path13"
     style="fill:#ff5d10"
     d="m 53.25,98.51 c 0,0 0.75,7.64 -0.02,8.57 -0.78,0.93 -12.44,3.63 -13.76,4.62 -1.43,1.07 -0.82,3.47 2.22,6.24 3.04,2.77 5.59,3.25 7.34,2.53 2.06,-0.84 5.63,-3.57 7.23,-4.79 1.28,-0.98 3.2,-3.06 3.46,-4.73 0.27,-1.67 -0.56,-11.48 -0.56,-11.48 z" />
  <path
     id="path15"
     style="fill:#ff5d10"
     d="m 68.45,101.19 c 0,0 1.1,8.92 0.56,10 -1.41,2.82 -9.47,9.16 -10,11.26 -0.42,1.69 3.8,5.07 8.02,5.16 5.64,0.13 9.17,-2.1 9.57,-3.33 0.56,-1.74 -1.55,-11.97 -1.83,-12.53 -0.28,-0.56 0.14,-15.06 0.14,-15.06 z" />
  <path
     id="path17"
     style="fill:#5e6367"
     d="m 98.66,56.49 c 0,0 4.8,-0.94 4.82,-4.2 0.01,-3.26 -1.74,-1.84 -1.76,-4.21 -0.02,-2.37 4.24,-2.93 7.04,-0.94 2.21,1.57 7.26,6.68 6.98,17.29 -0.38,14.41 -7.92,24.95 -19.79,31.47 -9.68,5.31 -23.96,4.68 -23.96,4.68 z" />
  <path
     id="path19"
     style="fill:#b0b0b1"
     d="m 85.67,57.69 c 2.35,-0.28 12.66,-3.54 16.33,-2.6 4.43,1.13 8.85,4.25 7.95,14.15 C 108.79,82.09 99.66,89.92 95.73,92.07 88.7,95.91 81.94,96 81.94,96 c 0,0 1.39,-38.03 3.73,-38.31 z" />
  <path
     id="path21"
     style="fill:#ffbf18"
     d="m 7.12,27.07 c 0,1.2 7.46,4.72 14.5,5.56 7.04,0.84 11.4,-0.28 11.4,-0.28 0,0 -1.2,-3.03 -1.2,-5.28 0,-2.25 1.16,-7.9 -0.63,-9.22 -1.62,-1.2 -2.96,1.27 -3.94,1.97 -0.99,0.7 -3.8,2.67 -8.17,2.82 -4.37,0.15 -8.17,-0.56 -9.71,0.28 -1.54,0.84 -2.25,2.88 -2.25,4.15 z" />
  <path
     id="path23"
     style="fill:#2d2b33"
     d="m 50.2,22.77 c -0.42,1.75 -1.61,3.12 -3.94,2.75 -2.18,-0.35 -3.24,-2.6 -2.6,-4.79 0.5,-1.73 1.79,-2.9 3.97,-2.53 2.5,0.42 2.97,2.88 2.57,4.57 z" />
  <path
     id="path25"
     style="fill:#73df86"
     d="m 50.92,27.57 c 2.47,-0.78 4.3,-0.79 4.04,-2.47 -0.3,-1.93 -3.51,-1.38 -5.55,-0.3 -2.17,1.15 -4.99,3.11 -3.74,4.7 1.33,1.69 3.83,-1.48 5.25,-1.93 z" />
  <path
     id="path27"
     style="fill:#ffffff"
     d="m 33.16,53.6 c 0,0 2.16,9.43 12.95,7.84 7.71,-1.14 13.42,-4.97 13.42,-4.97 l 0.09,-6.29 c 0,0 -5.12,3 -11.26,2.91 C 41.98,53 36.44,49.71 36.44,49.71 Z" />
  <path
     id="path29"
     style="fill:#84574e"
     d="m 26.03,71.11 c -0.75,20.45 14.67,30.17 39.14,30.59 27.12,0.47 37.61,-15.44 39.23,-25.43 1.69,-10.45 -5.07,-12.67 -5.07,-12.67 0,0 6.76,-2.82 3.73,-9.5 -1.41,-0.28 -8.35,1.57 -21.54,0.21 -13.1,-1.35 -22.08,0.94 -22.08,0.94 0,0 -3.28,3.57 -12.67,3.1 -11.25,-0.56 -13.42,-4.97 -13.42,-4.97 0,0 -6.85,5.01 -7.32,17.73 z" />
  <path
     id="path31"
     style="fill:#b79277"
     d="m 52.03,75.14 c 2.28,7.9 10.42,12.67 22.52,12.11 10.98,-0.51 18.96,-8.17 20.27,-14.92 1.43,-7.34 -1.55,-10.14 -1.55,-10.14 0,0 6.34,-2.3 6.34,-6.76 -3.57,-2.16 -14.92,-3.66 -27.5,-4.13 -8.16,-0.3 -12.76,2.72 -12.76,2.72 0,0 -11.55,6.48 -7.32,21.12 z" />
  <path
     id="path33"
     style="fill:#b0b0b1"
     d="M 76.05,56.84" />
  <ellipse
     ry="13.941588"
     rx="12.060579"
     cy="26.342453"
     cx="67.384331"
     id="path866"
     style="fill:#1a1a1a;stroke-width:13.2057;stroke-linecap:round;paint-order:stroke fill markers" />
  <rect
     ry="7.5707822"
     y="63.336159"
     x="81.940002"
     height="32.663841"
     width="22.559263"
     id="rect885"
     style="fill:#1a1a1a;stroke-width:5.23254;stroke-linecap:round;stroke-miterlimit:4;stroke-dasharray:none;paint-order:stroke fill markers" />
  <ellipse
     ry="2.8948655"
     rx="2.8166258"
     cy="72.84108"
     cx="93.418091"
     id="path887"
     style="fill:none;stroke:#e6e6e6;stroke-width:1.3;stroke-linecap:round;stroke-miterlimit:4;stroke-dasharray:none;stroke-opacity:1;paint-order:stroke fill markers" />
  <ellipse
     style="fill:none;stroke:#e6e6e6;stroke-width:1.3;stroke-linecap:round;stroke-miterlimit:4;stroke-dasharray:none;stroke-opacity:1;paint-order:stroke fill markers"
     id="path887-5"
     cx="93.57457"
     cy="85.437653"
     rx="2.8166258"
     ry="2.8948655" />
  <rect
     ry="4.5378971"
     y="65.721275"
     x="87.941322"
     height="27.696817"
     width="11.110023"
     id="rect904"
     style="fill:none;stroke:#4d4d4d;stroke-width:1.3;stroke-linecap:round;stroke-miterlimit:4;stroke-dasharray:none;stroke-opacity:1;paint-order:stroke fill markers" />
  <path
     sodipodi:nodetypes="cssssccc"
     id="path906"
     d="m 60.244499,34.894866 c 0,0 -5.715515,6.780496 -6.415648,10.953545 -0.484076,2.885273 0.178648,6.120508 1.721271,8.606357 3.960816,6.382631 10.329494,13.967416 17.838631,13.770171 4.400035,-0.115577 5.918272,-6.996017 10.01467,-8.606357 2.477624,-0.973982 7.98044,-0.312959 7.98044,-0.312959 l -0.156479,5.476773 v 0"
     style="fill:none;stroke:#000000;stroke-width:2.4;stroke-linecap:butt;stroke-linejoin:round;stroke-opacity:1;stroke-miterlimit:4;stroke-dasharray:none" />
  <ellipse
     ry="8.7411537"
     rx="6.9707937"
     cy="26.666052"
     cx="69.375992"
     id="path908"
     style="fill:#4d4d4d;stroke:#4d4d4d;stroke-width:2.4;stroke-linecap:round;stroke-linejoin:round;stroke-miterlimit:4;stroke-dasharray:none;stroke-opacity:1;paint-order:stroke fill markers" />
</svg>
